<?xml version="1.0" standalone="no"?>
<!DOCTYPE svg PUBLIC "-//W3C//DTD SVG 20010904//EN"
 "http://www.w3.org/TR/2001/REC-SVG-20010904/DTD/svg10.dtd">
<svg version="1.0" xmlns="http://www.w3.org/2000/svg"
 width="260.000000pt" height="260.000000pt" viewBox="0 0 260.000000 260.000000"
 preserveAspectRatio="xMidYMid meet">
<metadata>
Created by potrace 1.11, written by Peter Selinger 2001-2013
</metadata>
<g transform="translate(0.000000,260.000000) scale(0.100000,-0.100000)"
fill="#000000" stroke="none">
<path d="M1086 2484 c-365 -66 -691 -308 -857 -637 -202 -399 -166 -880 92
-1247 103 -147 277 -294 447 -379 272 -136 620 -159 914 -61 493 165 818 618
818 1140 0 331 -123 627 -357 857 -174 171 -397 286 -637 328 -109 19 -313 18
-420 -1z m-81 -863 c46 -21 74 -50 103 -106 l21 -40 1 78 0 77 100 0 100 0 0
-36 0 -36 35 30 c40 35 90 52 157 52 60 0 95 -14 135 -53 l33 -31 27 27 c83
78 246 75 311 -7 33 -42 42 -113 42 -316 l0 -190 -110 0 -110 0 0 164 c0 91
-4 176 -10 190 -13 36 -45 50 -80 36 -44 -18 -50 -46 -50 -225 l0 -165 -109 0
-110 0 -3 181 c-3 176 -4 181 -27 200 -32 26 -48 24 -82 -10 l-29 -29 0 -171
0 -171 -110 0 -110 0 0 73 -1 72 -19 -37 c-57 -107 -202 -147 -313 -88 l-37
20 0 -120 0 -120 -115 0 -115 0 0 380 0 380 105 0 105 0 0 -34 0 -34 30 26
c60 53 161 67 235 33z"/>
<path d="M814 1470 c-38 -15 -54 -50 -54 -116 0 -53 4 -67 26 -93 30 -36 70
-41 105 -12 20 16 24 30 27 95 4 73 3 76 -26 106 -32 31 -43 34 -78 20z"/>
</g>
</svg>
